<svg data-name="Group 948" viewBox="0 0 195.516 75" data-v-113faa97="" data-v-54a5d94a=""><g data-name="Group 927" class="logo-wrapper" data-v-113faa97=""><path data-name="Path 886" d="M72.391 75H2.609A2.616 2.616 0 0 1 0 72.391V2.609A2.616 2.616 0 0 1 2.609 0h69.782A2.616 2.616 0 0 1 75 2.609v69.782A2.616 2.616 0 0 1 72.391 75" fill="#000" data-v-113faa97=""></path> <path data-name="Path 887" d="M23.543 26.479a5.88 5.88 0 0 1-4.5 1.957 5.222 5.222 0 0 1-5.478-5.414 5.332 5.332 0 0 1 5.478-5.413 5.883 5.883 0 0 1 4.5 2.087l-1.37 1.3a4.217 4.217 0 0 0-3.13-1.5 3.467 3.467 0 0 0-3.522 3.522 3.372 3.372 0 0 0 3.587 3.522 4.115 4.115 0 0 0 3.13-1.5Z" fill="#fff" data-v-113faa97=""></path> <path data-name="Path 888" d="M25.37 17.935h5.609v1.891h-3.652v1.957h3.652v1.891h-3.652v2.674h3.652v1.887H25.37Z" fill="#fff" data-v-113faa97=""></path> <path data-name="Path 889" d="M33.065 17.935h1.957v8.413h2.87v1.887h-4.827Z" fill="#fff" data-v-113faa97=""></path> <path data-name="Path 890" d="M39.717 17.935h1.957v8.413h2.87v1.887h-4.827Z" fill="#fff" data-v-113faa97=""></path> <path data-name="Path 891" d="M14.152 32.283h2.413a3.961 3.961 0 0 1 2.935.848 2.946 2.946 0 0 1 .852 2.152 2.637 2.637 0 0 1-1.3 2.413 5.271 5.271 0 0 1-2.87.522v4.365h-1.965v-10.3Zm1.957 4.043h.913c.913 0 1.3-.326 1.3-1.043s-.457-1.043-1.435-1.043h-.848v2.087Z" fill="#fff" data-v-113faa97=""></path> <path data-name="Path 892" d="M32.087 37.435a5.289 5.289 0 0 1-5.348 5.348 5.413 5.413 0 0 1-.065-10.826 5.456 5.456 0 0 1 5.413 5.478m-8.739 0a3.343 3.343 0 0 0 3.391 3.457 3.386 3.386 0 0 0 3.326-3.522 3.438 3.438 0 0 0-3.391-3.522 3.488 3.488 0 0 0-3.326 3.587" fill="#fff" data-v-113faa97=""></path> <path data-name="Rectangle 1108" fill="#fff" d="M33.783 32.283h1.957v10.304h-1.957z" data-v-113faa97=""></path> <path data-name="Path 893" d="M37.957 32.283h1.891l4.435 6.783v-6.783h1.957v10.3h-1.892L39.913 35.8v6.783h-1.956Z" fill="#fff" data-v-113faa97=""></path> <path data-name="Path 894" d="M47.543 32.283h5.674v1.891h-1.891v8.409h-1.957v-8.409h-1.826v-1.891" fill="#fff" data-v-113faa97=""></path> <path data-name="Path 895" d="M19.891 47.218a7.733 7.733 0 0 0-3.13-.457h-2.348v9.978h3.457a4.573 4.573 0 0 0 4.957-4.891 4.959 4.959 0 0 0-2.935-4.63m1.174 7.5c-.913 1.109-2.217 1.37-4.3 1.37h-1.7v-8.61h1.239c2.283 0 3.783.261 4.826 1.63a4.518 4.518 0 0 1 .913 2.8 4.836 4.836 0 0 1-.978 2.8" fill="#fff" data-v-113faa97=""></path> <path data-name="Rectangle 1109" fill="#fff" d="M24.261 46.761h.717v9.978h-.717z" data-v-113faa97=""></path> <path data-name="Path 896" d="M26.413 51.783c0 3.391 2.935 5.217 5.674 5.217a4.69 4.69 0 0 0 5.026-4.891H33v.652h3.326v.2a3.962 3.962 0 0 1-4.174 3.391 4.81 4.81 0 0 1-4.957-4.63 4.708 4.708 0 0 1 4.761-4.565 5.731 5.731 0 0 1 3.913 1.7l.522-.522a6.311 6.311 0 0 0-4.5-1.826 5.268 5.268 0 0 0-5.478 5.274" fill="#fff" data-v-113faa97=""></path> <path data-name="Rectangle 1110" fill="#fff" d="M38.609 46.761h.717v9.978h-.717z" data-v-113faa97=""></path> <path data-name="Path 897" d="M46.174 46.761h-5.283v.717h2.283v9.261h.717v-9.261h2.283Z" fill="#fff" data-v-113faa97=""></path> <path data-name="Path 898" d="m52.956 53.348 1.63 3.391h.717l-4.629-9.978h-.061l-4.7 9.978h.783l1.63-3.391Zm-2.282-4.957 2.022 4.3h-4.044Z" fill="#fff" data-v-113faa97=""></path> <path data-name="Path 899" d="M56.348 46.761v9.978h4.7v-.652h-3.983v-9.326Z" fill="#fff" data-v-113faa97=""></path> <g class="tagline" data-v-113faa97=""><path data-name="Path 900" d="M89.101 17.969h1.953v8.4h2.845v1.858h-4.8Z" fill="#000" data-v-113faa97=""></path> <path data-name="Path 901" d="M95.391 17.969h5.6v1.911H97.33v1.855h3.661v1.876H97.33v2.7h3.661v1.916h-5.6Z" fill="#000" data-v-113faa97=""></path> <path data-name="Path 902" d="M105.841 17.969h1.981l3.945 10.259h-2.03l-.8-2.114h-4.186l-.835 2.114h-2.03Zm1 2.72-1.376 3.522h2.744Z" fill="#000" data-v-113faa97=""></path> <path data-name="Path 903" d="M112.63 17.969h2.314a7.622 7.622 0 0 1 3.323.554 4.328 4.328 0 0 1 1.791 1.8 6.319 6.319 0 0 1 .31 5.094 4.526 4.526 0 0 1-1.087 1.649 3.831 3.831 0 0 1-1.5.907 10.645 10.645 0 0 1-2.8.252h-2.351Zm1.939 1.882v6.473h.907a4.527 4.527 0 0 0 1.942-.308 2.326 2.326 0 0 0 .987-1.033 3.789 3.789 0 0 0 .384-1.787 3.4 3.4 0 0 0-.914-2.534 3.661 3.661 0 0 0-2.643-.811Z" fill="#000" data-v-113faa97=""></path> <path data-name="Rectangle 1111" fill="#000" d="M122.161 17.969h1.939v10.258h-1.939z" data-v-113faa97=""></path> <path data-name="Path 904" d="M126.065 17.969h1.873l4.39 6.751v-6.751h1.953v10.258h-1.879l-4.384-6.73v6.73h-1.953Z" fill="#000" data-v-113faa97=""></path> <path data-name="Path 905" d="m145.267 19.642-1.375 1.36a4.064 4.064 0 0 0-3.043-1.381 3.476 3.476 0 0 0-2.538 1 3.294 3.294 0 0 0-1.023 2.441 3.378 3.378 0 0 0 1.061 2.517 3.61 3.61 0 0 0 2.618 1.032 3.213 3.213 0 0 0 1.707-.425 3 3 0 0 0 1.12-1.332h-2.973v-1.829h5.161l.014.432a5.023 5.023 0 0 1-.7 2.553 4.878 4.878 0 0 1-1.807 1.841 5.153 5.153 0 0 1-2.6.635 5.78 5.78 0 0 1-2.849-.694 5.077 5.077 0 0 1-1.981-1.977 5.521 5.521 0 0 1-.728-2.768 5.147 5.147 0 0 1 1.345-3.543 5.308 5.308 0 0 1 4.157-1.793 6.334 6.334 0 0 1 2.5.5 5.741 5.741 0 0 1 1.925 1.437" fill="#000" data-v-113faa97=""></path> <path data-name="Path 906" d="M89.093 32.252h2.071a6.821 6.821 0 0 1 2.423.31 2.464 2.464 0 0 1 1.171 1 3.1 3.1 0 0 1 .429 1.663 2.79 2.79 0 0 1-.562 1.785 2.908 2.908 0 0 1-1.523.991 8.766 8.766 0 0 1-2.058.16v4.345h-1.951Zm1.953 4.01h.621a3.358 3.358 0 0 0 1.018-.1.91.91 0 0 0 .45-.346 1.017 1.017 0 0 0 .164-.584.935.935 0 0 0-.46-.868 2.634 2.634 0 0 0-1.242-.2h-.551Z" fill="#000" data-v-113faa97=""></path> <path data-name="Path 907" d="M98.521 32.251h1.981l3.945 10.259h-2.03l-.8-2.114h-4.186l-.835 2.114h-2.031Zm1 2.72-1.376 3.522h2.744Z" fill="#000" data-v-113faa97=""></path> <path data-name="Path 908" d="M103.435 32.251h2.1l1.914 3.69 1.9-3.69h2.07l-3 5.816v4.442h-1.966v-4.442Z" fill="#000" data-v-113faa97=""></path> <path data-name="Path 909" d="M113.259 32.251h1.9l2.384 7.155 2.4-7.155h1.9l1.72 10.258h-1.89l-1.1-6.479-2.179 6.479h-1.721l-2.16-6.479-1.126 6.479h-1.9Z" fill="#000" data-v-113faa97=""></path> <path data-name="Path 910" d="M125.091 32.251h5.6v1.911h-3.661v1.855h3.661v1.876h-3.661v2.7h3.661v1.916h-5.6Z" fill="#000" data-v-113faa97=""></path> <path data-name="Path 911" d="M132.587 32.251h1.873l4.39 6.751v-6.751h1.953v10.258h-1.879l-4.384-6.73v6.73h-1.953Z" fill="#000" data-v-113faa97=""></path> <path data-name="Path 912" d="M142.078 32.251h5.669v1.925h-1.869v8.333h-1.981v-8.333h-1.82Z" fill="#000" data-v-113faa97=""></path> <path data-name="Path 913" d="M97.231 47.977a5.234 5.234 0 0 0-3.82-1.522 5.171 5.171 0 0 0-4.524 2.634 5.373 5.373 0 0 0-.7 2.684 5.047 5.047 0 0 0 1.537 3.7 5.162 5.162 0 0 0 3.772 1.529 5.3 5.3 0 0 0 3.737-9.025m-1.508 7.662a4.527 4.527 0 0 1-2.268.593 4.428 4.428 0 0 1-4.438-4.462 4.572 4.572 0 0 1 .588-2.3 4.493 4.493 0 0 1 3.849-2.246 4.466 4.466 0 0 1 2.25.609 4.379 4.379 0 0 1 1.645 1.623 4.469 4.469 0 0 1 .584 2.265 4.587 4.587 0 0 1-.584 2.29 4.286 4.286 0 0 1-1.628 1.628" fill="#000" data-v-113faa97=""></path> <path data-name="Path 914" d="M102.474 51.986h.231a5.069 5.069 0 0 0 1.977-.322 2.351 2.351 0 0 0 1.075-.915 2.636 2.636 0 0 0 .378-1.414 2.462 2.462 0 0 0-.546-1.62 2.54 2.54 0 0 0-1.423-.859 12.371 12.371 0 0 0-2.29-.137h-1.93v10.03h.8V51.98h.749l3.689 4.763h.98Zm-1.73-.778v-3.722h1.923a4.482 4.482 0 0 1 1.551.19 1.678 1.678 0 0 1 .787.646 1.786 1.786 0 0 1 .3 1 1.857 1.857 0 0 1-.294 1.021 1.7 1.7 0 0 1-.822.668 4.469 4.469 0 0 1-1.561.2Z" fill="#000" data-v-113faa97=""></path> <path data-name="Path 915" d="M112.359 56.26a4.587 4.587 0 0 1-3.326-1.288 4.322 4.322 0 0 1-1.321-3.212 4.516 4.516 0 0 1 .59-2.293 4.366 4.366 0 0 1 1.664-1.625 4.7 4.7 0 0 1 2.33-.6 4.847 4.847 0 0 1 2.11.46 4.558 4.558 0 0 1 1.578 1.265l.63-.483a4.948 4.948 0 0 0-1.789-1.469 5.716 5.716 0 0 0-2.543-.557 5.361 5.361 0 0 0-3.878 1.505 5 5 0 0 0-1.545 3.709 5.322 5.322 0 0 0 1.276 3.58 5.245 5.245 0 0 0 4.161 1.753 5.927 5.927 0 0 0 2.515-.523 5.085 5.085 0 0 0 1.8-1.387l-.631-.478a4.679 4.679 0 0 1-3.622 1.646" fill="#000" data-v-113faa97=""></path> <path data-name="Path 916" d="M118.835 46.713h-.8v10.03h.8v-4.951h5.452v4.951h.8v-10.03h-.8v4.3h-5.452Z" fill="#000" data-v-113faa97=""></path> <path data-name="Path 917" d="M132.629 47.486v-.775h-5.651v10.03h5.609v-.776h-4.809v-4.257h4.812v-.777h-4.812v-3.445Z" fill="#000" data-v-113faa97=""></path> <path data-name="Path 918" d="M138.63 52.874a7.4 7.4 0 0 0-1.8-1.72c-.759-.561-1.2-.9-1.336-1.035a2.49 2.49 0 0 1-.534-.719 1.7 1.7 0 0 1-.149-.7 1.349 1.349 0 0 1 .428-1.01 1.526 1.526 0 0 1 1.094-.408 1.824 1.824 0 0 1 .948.26 3.864 3.864 0 0 1 .95.95l.657-.5a4.421 4.421 0 0 0-1.233-1.2 2.6 2.6 0 0 0-1.3-.345 2.506 2.506 0 0 0-1.211.3 2.187 2.187 0 0 0-.859.826 2.277 2.277 0 0 0-.305 1.163 2.462 2.462 0 0 0 .521 1.5 8.994 8.994 0 0 0 1.569 1.388 8.464 8.464 0 0 1 1.782 1.671 1.858 1.858 0 0 1 .37 1.077 1.793 1.793 0 0 1-.253.916 1.821 1.821 0 0 1-.735.688 2.165 2.165 0 0 1-1.023.253c-.82 0-1.55-.554-2.169-1.65l-.676.406a4.357 4.357 0 0 0 1.311 1.534 2.925 2.925 0 0 0 1.632.48 2.748 2.748 0 0 0 1.981-.791 2.515 2.515 0 0 0 .813-1.856 2.724 2.724 0 0 0-.477-1.48" fill="#000" data-v-113faa97=""></path> <path data-name="Path 919" d="M141.722 56.743h.818v-9.257h2.288v-.776h-5.393v.776h2.287Z" fill="#000" data-v-113faa97=""></path> <path data-name="Path 920" d="M148.745 51.986h.231a5.069 5.069 0 0 0 1.977-.322 2.351 2.351 0 0 0 1.075-.915 2.637 2.637 0 0 0 .378-1.414 2.461 2.461 0 0 0-.546-1.62 2.54 2.54 0 0 0-1.423-.859 12.371 12.371 0 0 0-2.29-.137h-1.93v10.03h.8V51.98h.749l3.689 4.763h.98Zm-1.728-.783v-3.717h1.923a4.482 4.482 0 0 1 1.551.19 1.678 1.678 0 0 1 .786.646 1.786 1.786 0 0 1 .3 1 1.857 1.857 0 0 1-.294 1.021 1.7 1.7 0 0 1-.822.668 4.468 4.468 0 0 1-1.561.2Z" fill="#000" data-v-113faa97=""></path> <path data-name="Path 921" d="M157.389 46.713h-.106l-4.74 10.03h.891l1.6-3.376h4.563l1.614 3.376h.856Zm-2 5.892 1.938-4.094 1.93 4.094Z" fill="#000" data-v-113faa97=""></path> <path data-name="Path 922" d="M163.439 56.743h.818v-9.257h2.287v-.776h-5.392v.776h2.287Z" fill="#000" data-v-113faa97=""></path> <path data-name="Rectangle 1112" fill="#000" d="M167.739 46.713h.798v10.03h-.798z" data-v-113faa97=""></path> <path data-name="Path 923" d="M179.365 47.977a5.238 5.238 0 0 0-3.821-1.522 5.168 5.168 0 0 0-4.523 2.634 5.373 5.373 0 0 0-.7 2.684 5.047 5.047 0 0 0 1.537 3.7 5.161 5.161 0 0 0 3.771 1.529 5.3 5.3 0 0 0 3.738-9.025m-1.508 7.662a4.526 4.526 0 0 1-2.268.593 4.428 4.428 0 0 1-4.437-4.462 4.579 4.579 0 0 1 .587-2.3 4.4 4.4 0 0 1 1.635-1.64 4.359 4.359 0 0 1 2.209-.606 4.469 4.469 0 0 1 2.251.609 4.379 4.379 0 0 1 1.645 1.623 4.47 4.47 0 0 1 .584 2.268 4.581 4.581 0 0 1-.584 2.29 4.286 4.286 0 0 1-1.629 1.628" fill="#000" data-v-113faa97=""></path> <path data-name="Path 924" d="M182.231 46.713h-.057v10.03h.832v-7.957l6.938 7.958h.064V46.713h-.783v8.056l-.2-.232Z" fill="#000" data-v-113faa97=""></path> <path data-name="Path 925" d="M191.739 49.014h.392v-1.891h.456v-.392h-1.239v.392h.392Z" fill="#000" data-v-113faa97=""></path> <path data-name="Path 926" d="M195.136 46.731h-.406l-.545 1.7-.031-.1-.514-1.608h-.407l-.507 2.283h.388l.277-1.6.556 1.6h.346l.556-1.6.021.123.256 1.473h.391Z" fill="#000" data-v-113faa97=""></path></g></g></svg>