<svg xmlns="http://www.w3.org/2000/svg" xmlns:xlink="http://www.w3.org/1999/xlink" width="79.62" height="15.274" viewBox="0 0 79.62 15.274">
  <defs>
    <clipPath id="clip-path">
      <rect id="Rectangle_6085" data-name="Rectangle 6085" width="79.62" height="15.274"/>
    </clipPath>
  </defs>
  <g id="Amazon_Pay_logo" clip-path="url(#clip-path)">
    <path id="Path_2410" data-name="Path 2410" d="M40.088,23.815a19.272,19.272,0,0,1-10.881,3.326A19.693,19.693,0,0,1,15.914,22.07c-.275-.249-.03-.589.3-.4a26.755,26.755,0,0,0,13.3,3.529,26.461,26.461,0,0,0,10.145-2.076C40.158,22.916,40.575,23.455,40.088,23.815Z" transform="translate(-8.671 -11.866)" fill-rule="evenodd"/>
    <path id="Path_2411" data-name="Path 2411" d="M67.889,21.772c-.377-.482-2.488-.228-3.436-.115-.287.035-.332-.217-.073-.4,1.684-1.183,4.444-.842,4.765-.445s-.085,3.166-1.663,4.487c-.243.2-.474.095-.366-.173C67.47,24.241,68.265,22.255,67.889,21.772Z" transform="translate(-35.246 -11.222)" fill-rule="evenodd"/>
    <path id="Path_2412" data-name="Path 2412" d="M64.54,1.971V.821A.284.284,0,0,1,64.831.53h5.152a.287.287,0,0,1,.3.29v.986a1.622,1.622,0,0,1-.388.724L67.223,6.34a5.721,5.721,0,0,1,2.939.631.526.526,0,0,1,.273.449V8.646c0,.169-.185.364-.38.263a5.933,5.933,0,0,0-5.443.01c-.179.1-.366-.1-.366-.267V7.486a1.387,1.387,0,0,1,.192-.79l3.092-4.436H64.837A.286.286,0,0,1,64.54,1.971Z" transform="translate(-35.267 -0.291)" fill-rule="evenodd"/>
    <path id="Path_2413" data-name="Path 2413" d="M20.984,8.97H19.417a.3.3,0,0,1-.281-.265V.66a.3.3,0,0,1,.3-.289H20.9a.3.3,0,0,1,.285.27v1.05h.03a2.153,2.153,0,0,1,4.1,0,2.314,2.314,0,0,1,3.979-.609,4.27,4.27,0,0,1,.4,2.522l0,5.077a.3.3,0,0,1-.3.289H27.816a.294.294,0,0,1-.281-.289V4.416A10.242,10.242,0,0,0,27.49,2.91a.817.817,0,0,0-.921-.695,1.04,1.04,0,0,0-.937.66,4.867,4.867,0,0,0-.146,1.541V8.681a.3.3,0,0,1-.3.289H23.618a.294.294,0,0,1-.281-.289l0-4.265c0-.9.147-2.217-.965-2.217s-1.083,1.286-1.083,2.217V8.681A.3.3,0,0,1,20.984,8.97Z" transform="translate(-10.504 -0.11)" fill-rule="evenodd"/>
    <path id="Path_2414" data-name="Path 2414" d="M83.179,1.843c-1.156,0-1.229,1.574-1.229,2.556S81.936,7.48,83.165,7.48s1.273-1.693,1.273-2.725A7.446,7.446,0,0,0,84.2,2.622.981.981,0,0,0,83.179,1.843ZM83.165.2c2.326,0,3.584,2,3.584,4.537,0,2.454-1.39,4.4-3.584,4.4-2.283,0-3.526-2-3.526-4.486C79.639,2.148,80.9.2,83.165.2Z" transform="translate(-43.717 -0.11)" fill-rule="evenodd"/>
    <path id="Path_2415" data-name="Path 2415" d="M99.846,8.97H98.284A.294.294,0,0,1,98,8.681L98,.634a.3.3,0,0,1,.3-.263h1.454a.3.3,0,0,1,.279.225V1.826h.029A2.132,2.132,0,0,1,102.2.2a2.055,2.055,0,0,1,1.829.948,5.119,5.119,0,0,1,.41,2.505V8.717a.3.3,0,0,1-.3.253h-1.571a.3.3,0,0,1-.279-.253V4.349c0-.88.1-2.167-.98-2.167a1.026,1.026,0,0,0-.907.643,3.575,3.575,0,0,0-.249,1.524V8.681A.3.3,0,0,1,99.846,8.97Z" transform="translate(-53.796 -0.11)" fill-rule="evenodd"/>
    <path id="Path_2416" data-name="Path 2416" d="M51.751,8.856a.324.324,0,0,1-.37.037,3.821,3.821,0,0,1-.9-1.045A3.106,3.106,0,0,1,47.9,8.987a2.225,2.225,0,0,1-2.346-2.443,2.663,2.663,0,0,1,1.672-2.562,10.831,10.831,0,0,1,2.947-.543v-.2A2.005,2.005,0,0,0,49.98,2.1a1.047,1.047,0,0,0-.88-.407,1.193,1.193,0,0,0-1.26.941.332.332,0,0,1-.272.289l-1.52-.165a.277.277,0,0,1-.234-.328C46.16.612,47.783.045,49.258.03h.116a3.525,3.525,0,0,1,2.307.78c.763.713.689,1.663.689,2.7V5.949A2.14,2.14,0,0,0,52.962,7.4a.3.3,0,0,1,0,.417c-.32.268-.889.762-1.2,1.041Zm-1.58-3.821A3.078,3.078,0,0,1,49.878,6.7a1.274,1.274,0,0,1-1.085.712c-.6,0-.953-.458-.953-1.137,0-1.335,1.2-1.578,2.331-1.578Z" transform="translate(-25.005 -0.016)" fill-rule="evenodd"/>
    <path id="Path_2417" data-name="Path 2417" d="M6.2,8.856a.325.325,0,0,1-.37.037,3.8,3.8,0,0,1-.9-1.045A3.107,3.107,0,0,1,2.346,8.987,2.225,2.225,0,0,1,0,6.544,2.661,2.661,0,0,1,1.672,3.983,10.83,10.83,0,0,1,4.618,3.44v-.2A2,2,0,0,0,4.428,2.1a1.047,1.047,0,0,0-.88-.407,1.193,1.193,0,0,0-1.26.941.332.332,0,0,1-.272.289L.5,2.757a.276.276,0,0,1-.234-.328C.607.612,2.231.045,3.706.03h.116A3.525,3.525,0,0,1,6.129.81c.762.713.689,1.663.689,2.7V5.949A2.14,2.14,0,0,0,7.41,7.4a.3.3,0,0,1,0,.417c-.32.268-.89.762-1.2,1.041ZM4.618,5.035A3.074,3.074,0,0,1,4.325,6.7a1.273,1.273,0,0,1-1.085.712c-.6,0-.953-.458-.953-1.137,0-1.335,1.2-1.578,2.331-1.578Z" transform="translate(0 -0.016)" fill-rule="evenodd"/>
    <path id="Path_2418" data-name="Path 2418" d="M159.21,12.054v-.591c0-.168.083-.284.258-.274a3.684,3.684,0,0,0,1.12.025,1.3,1.3,0,0,0,.92-.811c.257-.587.427-1.061.534-1.372L158.781.955c-.055-.137-.071-.392.2-.392h1.14a.355.355,0,0,1,.355.273L162.842,7.4,165.1.836a.355.355,0,0,1,.354-.273h1.075c.272,0,.257.254.2.392L163.5,9.284c-.419,1.109-.976,2.875-2.232,3.181a3.309,3.309,0,0,1-1.89-.09A.368.368,0,0,1,159.21,12.054Z" transform="translate(-87.142 -0.309)" fill-rule="evenodd"/>
    <path id="Path_2419" data-name="Path 2419" d="M148.164,8.367a.275.275,0,0,1-.274.273h-.8a.313.313,0,0,1-.314-.273l-.081-.547a4.7,4.7,0,0,1-1.314.779,3.3,3.3,0,0,1-2.959-.139,2.357,2.357,0,0,1-1.023-2.038,2.5,2.5,0,0,1,.634-1.734,3.213,3.213,0,0,1,2.449-.938,7.631,7.631,0,0,1,2.141.282V2.93c0-1.12-.471-1.6-1.714-1.6a8.319,8.319,0,0,0-2.688.458.246.246,0,0,1-.257-.268V.888a.39.39,0,0,1,.268-.341A8.1,8.1,0,0,1,145.061,0c1.418,0,3.1.32,3.1,2.5ZM146.619,6.76V5.1a8.579,8.579,0,0,0-1.778-.209,2.056,2.056,0,0,0-1.456.465,1.373,1.373,0,0,0-.339.942,1.259,1.259,0,0,0,.51,1.1,2.077,2.077,0,0,0,1.664.076A3.636,3.636,0,0,0,146.619,6.76Z" transform="translate(-77.617)" fill-rule="evenodd"/>
    <path id="Path_2420" data-name="Path 2420" d="M125.541,1.357c1.784,0,2.269,1.4,2.269,3.008a3.612,3.612,0,0,1-.75,2.6,2.029,2.029,0,0,1-1.594.526,3.868,3.868,0,0,1-2.071-.784V2.117A3.689,3.689,0,0,1,125.541,1.357ZM123.122,12.04h-1.077a.274.274,0,0,1-.274-.273V.548a.274.274,0,0,1,.274-.273h.824a.313.313,0,0,1,.314.273l.087.588A4.234,4.234,0,0,1,125.983.011c2.652,0,3.524,2.185,3.524,4.457,0,2.431-1.334,4.384-3.59,4.384a3.776,3.776,0,0,1-2.521-.959v3.874A.274.274,0,0,1,123.122,12.04Z" transform="translate(-66.845 -0.006)" fill-rule="evenodd"/>
  </g>
</svg>
